<svg width="716" height="309" viewBox="0 0 716 309" fill="none" xmlns="http://www.w3.org/2000/svg">
	<style>
		.blue-text {
	transform: translate3d(0, 0, 0);
	animation: moveLeft 0.3s ease-in-out infinite alternate;
}
.pink-text {
	transform: translate3d(0, 0, 0);
	animation: moveRight 0.3s ease-in-out infinite alternate;
}
@keyframes moveRight {
	to {
		transform: translate(1px, 0px);
	}
}
@keyframes moveLeft {
	to {
		transform: translate(-1px, 0px);
	}
}

	</style>	
	<g filter="url(#filter0_d)">
		<rect x="4" width="708" height="301" fill="url(#paint0_linear)" />
		<rect x="4.5" y="0.5" width="707" height="300" stroke="black" />
	</g>
	<path class="blue-text" d="M160.207 90.8125H170.754V126.25C170.754 129.508 170.027 132.391 168.574 134.898C167.145 137.383 165.117 139.305 162.492 140.664C159.867 142.023 156.902 142.703 153.598 142.703C148.184 142.703 143.965 141.332 140.941 138.59C137.918 135.824 136.406 131.922 136.406 126.883H147.023C147.023 129.391 147.551 131.242 148.605 132.438C149.66 133.633 151.324 134.23 153.598 134.23C155.613 134.23 157.219 133.539 158.414 132.156C159.609 130.773 160.207 128.805 160.207 126.25V90.8125ZM177.539 122.629C177.539 118.855 178.266 115.492 179.719 112.539C181.172 109.586 183.258 107.301 185.977 105.684C188.719 104.066 191.895 103.258 195.504 103.258C200.637 103.258 204.82 104.828 208.055 107.969C211.312 111.109 213.129 115.375 213.504 120.766L213.574 123.367C213.574 129.203 211.945 133.891 208.688 137.43C205.43 140.945 201.059 142.703 195.574 142.703C190.09 142.703 185.707 140.945 182.426 137.43C179.168 133.914 177.539 129.133 177.539 123.086V122.629ZM187.699 123.367C187.699 126.977 188.379 129.742 189.738 131.664C191.098 133.562 193.043 134.512 195.574 134.512C198.035 134.512 199.957 133.574 201.34 131.699C202.723 129.801 203.414 126.777 203.414 122.629C203.414 119.09 202.723 116.348 201.34 114.402C199.957 112.457 198.012 111.484 195.504 111.484C193.02 111.484 191.098 112.457 189.738 114.402C188.379 116.324 187.699 119.312 187.699 123.367ZM241.207 113.488C239.824 113.301 238.605 113.207 237.551 113.207C233.707 113.207 231.188 114.508 229.992 117.109V142H219.832V103.961H229.43L229.711 108.496C231.75 105.004 234.574 103.258 238.184 103.258C239.309 103.258 240.363 103.41 241.348 103.715L241.207 113.488ZM243.949 122.699C243.949 116.863 245.332 112.164 248.098 108.602C250.887 105.039 254.637 103.258 259.348 103.258C263.52 103.258 266.766 104.688 269.086 107.547L269.508 103.961H278.719V140.734C278.719 144.062 277.957 146.957 276.434 149.418C274.934 151.879 272.812 153.754 270.07 155.043C267.328 156.332 264.117 156.977 260.438 156.977C257.648 156.977 254.93 156.414 252.281 155.289C249.633 154.188 247.629 152.758 246.27 151L250.77 144.812C253.301 147.648 256.371 149.066 259.98 149.066C262.676 149.066 264.773 148.34 266.273 146.887C267.773 145.457 268.523 143.418 268.523 140.77V138.73C266.18 141.379 263.098 142.703 259.277 142.703C254.707 142.703 251.004 140.922 248.168 137.359C245.355 133.773 243.949 129.027 243.949 123.121V122.699ZM254.109 123.438C254.109 126.883 254.801 129.59 256.184 131.559C257.566 133.504 259.465 134.477 261.879 134.477C264.973 134.477 267.188 133.316 268.523 130.996V115C267.164 112.68 264.973 111.52 261.949 111.52C259.512 111.52 257.59 112.516 256.184 114.508C254.801 116.5 254.109 119.477 254.109 123.438ZM304.066 142.703C298.488 142.703 293.941 140.992 290.426 137.57C286.934 134.148 285.188 129.59 285.188 123.895V122.91C285.188 119.09 285.926 115.68 287.402 112.68C288.879 109.656 290.965 107.336 293.66 105.719C296.379 104.078 299.473 103.258 302.941 103.258C308.145 103.258 312.234 104.898 315.211 108.18C318.211 111.461 319.711 116.113 319.711 122.137V126.285H295.488C295.816 128.77 296.801 130.762 298.441 132.262C300.105 133.762 302.203 134.512 304.734 134.512C308.648 134.512 311.707 133.094 313.91 130.258L318.902 135.848C317.379 138.004 315.316 139.691 312.715 140.91C310.113 142.105 307.23 142.703 304.066 142.703ZM302.906 111.484C300.891 111.484 299.25 112.164 297.984 113.523C296.742 114.883 295.945 116.828 295.594 119.359H309.727V118.551C309.68 116.301 309.07 114.566 307.898 113.348C306.727 112.105 305.062 111.484 302.906 111.484ZM384.293 124.949C383.895 130.457 381.855 134.793 378.176 137.957C374.52 141.121 369.691 142.703 363.691 142.703C357.129 142.703 351.961 140.5 348.188 136.094C344.438 131.664 342.562 125.594 342.562 117.883V114.754C342.562 109.832 343.43 105.496 345.164 101.746C346.898 97.9961 349.371 95.125 352.582 93.1328C355.816 91.1172 359.566 90.1094 363.832 90.1094C369.738 90.1094 374.496 91.6914 378.105 94.8555C381.715 98.0195 383.801 102.461 384.363 108.18H373.816C373.559 104.875 372.633 102.484 371.039 101.008C369.469 99.5078 367.066 98.7578 363.832 98.7578C360.316 98.7578 357.68 100.023 355.922 102.555C354.188 105.062 353.297 108.965 353.25 114.262V118.129C353.25 123.66 354.082 127.703 355.746 130.258C357.434 132.812 360.082 134.09 363.691 134.09C366.949 134.09 369.375 133.352 370.969 131.875C372.586 130.375 373.512 128.066 373.746 124.949H384.293ZM412.594 142C412.125 141.086 411.785 139.949 411.574 138.59C409.113 141.332 405.914 142.703 401.977 142.703C398.25 142.703 395.156 141.625 392.695 139.469C390.258 137.312 389.039 134.594 389.039 131.312C389.039 127.281 390.527 124.188 393.504 122.031C396.504 119.875 400.828 118.785 406.477 118.762H411.152V116.582C411.152 114.824 410.695 113.418 409.781 112.363C408.891 111.309 407.473 110.781 405.527 110.781C403.816 110.781 402.469 111.191 401.484 112.012C400.523 112.832 400.043 113.957 400.043 115.387H389.883C389.883 113.184 390.562 111.145 391.922 109.27C393.281 107.395 395.203 105.93 397.688 104.875C400.172 103.797 402.961 103.258 406.055 103.258C410.742 103.258 414.457 104.441 417.199 106.809C419.965 109.152 421.348 112.457 421.348 116.723V133.211C421.371 136.82 421.875 139.551 422.859 141.402V142H412.594ZM404.191 134.934C405.691 134.934 407.074 134.605 408.34 133.949C409.605 133.27 410.543 132.367 411.152 131.242V124.703H407.355C402.27 124.703 399.562 126.461 399.234 129.977L399.199 130.574C399.199 131.84 399.645 132.883 400.535 133.703C401.426 134.523 402.645 134.934 404.191 134.934ZM463.43 123.332C463.43 129.426 462.129 134.184 459.527 137.605C456.926 141.004 453.293 142.703 448.629 142.703C444.504 142.703 441.211 141.121 438.75 137.957L438.293 142H429.152V88H439.312V107.371C441.656 104.629 444.738 103.258 448.559 103.258C453.199 103.258 456.832 104.969 459.457 108.391C462.105 111.789 463.43 116.582 463.43 122.77V123.332ZM453.27 122.594C453.27 118.75 452.66 115.949 451.441 114.191C450.223 112.41 448.406 111.52 445.992 111.52C442.758 111.52 440.531 112.844 439.312 115.492V130.504C440.555 133.176 442.805 134.512 446.062 134.512C449.344 134.512 451.5 132.895 452.531 129.66C453.023 128.113 453.27 125.758 453.27 122.594ZM487.23 142.703C481.652 142.703 477.105 140.992 473.59 137.57C470.098 134.148 468.352 129.59 468.352 123.895V122.91C468.352 119.09 469.09 115.68 470.566 112.68C472.043 109.656 474.129 107.336 476.824 105.719C479.543 104.078 482.637 103.258 486.105 103.258C491.309 103.258 495.398 104.898 498.375 108.18C501.375 111.461 502.875 116.113 502.875 122.137V126.285H478.652C478.98 128.77 479.965 130.762 481.605 132.262C483.27 133.762 485.367 134.512 487.898 134.512C491.812 134.512 494.871 133.094 497.074 130.258L502.066 135.848C500.543 138.004 498.48 139.691 495.879 140.91C493.277 142.105 490.395 142.703 487.23 142.703ZM486.07 111.484C484.055 111.484 482.414 112.164 481.148 113.523C479.906 114.883 479.109 116.828 478.758 119.359H492.891V118.551C492.844 116.301 492.234 114.566 491.062 113.348C489.891 112.105 488.227 111.484 486.07 111.484ZM519.398 142H509.203V88H519.398V142ZM538.523 142H528.328V88H538.523V142ZM545.344 122.629C545.344 118.855 546.07 115.492 547.523 112.539C548.977 109.586 551.062 107.301 553.781 105.684C556.523 104.066 559.699 103.258 563.309 103.258C568.441 103.258 572.625 104.828 575.859 107.969C579.117 111.109 580.934 115.375 581.309 120.766L581.379 123.367C581.379 129.203 579.75 133.891 576.492 137.43C573.234 140.945 568.863 142.703 563.379 142.703C557.895 142.703 553.512 140.945 550.23 137.43C546.973 133.914 545.344 129.133 545.344 123.086V122.629ZM555.504 123.367C555.504 126.977 556.184 129.742 557.543 131.664C558.902 133.562 560.848 134.512 563.379 134.512C565.84 134.512 567.762 133.574 569.145 131.699C570.527 129.801 571.219 126.777 571.219 122.629C571.219 119.09 570.527 116.348 569.145 114.402C567.762 112.457 565.816 111.484 563.309 111.484C560.824 111.484 558.902 112.457 557.543 114.402C556.184 116.324 555.504 119.312 555.504 123.367Z" fill="#3ed2e8" />
	<path class="pink-text" d="M164.207 90.8125H174.754V126.25C174.754 129.508 174.027 132.391 172.574 134.898C171.145 137.383 169.117 139.305 166.492 140.664C163.867 142.023 160.902 142.703 157.598 142.703C152.184 142.703 147.965 141.332 144.941 138.59C141.918 135.824 140.406 131.922 140.406 126.883H151.023C151.023 129.391 151.551 131.242 152.605 132.438C153.66 133.633 155.324 134.23 157.598 134.23C159.613 134.23 161.219 133.539 162.414 132.156C163.609 130.773 164.207 128.805 164.207 126.25V90.8125ZM181.539 122.629C181.539 118.855 182.266 115.492 183.719 112.539C185.172 109.586 187.258 107.301 189.977 105.684C192.719 104.066 195.895 103.258 199.504 103.258C204.637 103.258 208.82 104.828 212.055 107.969C215.312 111.109 217.129 115.375 217.504 120.766L217.574 123.367C217.574 129.203 215.945 133.891 212.688 137.43C209.43 140.945 205.059 142.703 199.574 142.703C194.09 142.703 189.707 140.945 186.426 137.43C183.168 133.914 181.539 129.133 181.539 123.086V122.629ZM191.699 123.367C191.699 126.977 192.379 129.742 193.738 131.664C195.098 133.562 197.043 134.512 199.574 134.512C202.035 134.512 203.957 133.574 205.34 131.699C206.723 129.801 207.414 126.777 207.414 122.629C207.414 119.09 206.723 116.348 205.34 114.402C203.957 112.457 202.012 111.484 199.504 111.484C197.02 111.484 195.098 112.457 193.738 114.402C192.379 116.324 191.699 119.312 191.699 123.367ZM245.207 113.488C243.824 113.301 242.605 113.207 241.551 113.207C237.707 113.207 235.188 114.508 233.992 117.109V142H223.832V103.961H233.43L233.711 108.496C235.75 105.004 238.574 103.258 242.184 103.258C243.309 103.258 244.363 103.41 245.348 103.715L245.207 113.488ZM247.949 122.699C247.949 116.863 249.332 112.164 252.098 108.602C254.887 105.039 258.637 103.258 263.348 103.258C267.52 103.258 270.766 104.688 273.086 107.547L273.508 103.961H282.719V140.734C282.719 144.062 281.957 146.957 280.434 149.418C278.934 151.879 276.812 153.754 274.07 155.043C271.328 156.332 268.117 156.977 264.438 156.977C261.648 156.977 258.93 156.414 256.281 155.289C253.633 154.188 251.629 152.758 250.27 151L254.77 144.812C257.301 147.648 260.371 149.066 263.98 149.066C266.676 149.066 268.773 148.34 270.273 146.887C271.773 145.457 272.523 143.418 272.523 140.77V138.73C270.18 141.379 267.098 142.703 263.277 142.703C258.707 142.703 255.004 140.922 252.168 137.359C249.355 133.773 247.949 129.027 247.949 123.121V122.699ZM258.109 123.438C258.109 126.883 258.801 129.59 260.184 131.559C261.566 133.504 263.465 134.477 265.879 134.477C268.973 134.477 271.188 133.316 272.523 130.996V115C271.164 112.68 268.973 111.52 265.949 111.52C263.512 111.52 261.59 112.516 260.184 114.508C258.801 116.5 258.109 119.477 258.109 123.438ZM308.066 142.703C302.488 142.703 297.941 140.992 294.426 137.57C290.934 134.148 289.188 129.59 289.188 123.895V122.91C289.188 119.09 289.926 115.68 291.402 112.68C292.879 109.656 294.965 107.336 297.66 105.719C300.379 104.078 303.473 103.258 306.941 103.258C312.145 103.258 316.234 104.898 319.211 108.18C322.211 111.461 323.711 116.113 323.711 122.137V126.285H299.488C299.816 128.77 300.801 130.762 302.441 132.262C304.105 133.762 306.203 134.512 308.734 134.512C312.648 134.512 315.707 133.094 317.91 130.258L322.902 135.848C321.379 138.004 319.316 139.691 316.715 140.91C314.113 142.105 311.23 142.703 308.066 142.703ZM306.906 111.484C304.891 111.484 303.25 112.164 301.984 113.523C300.742 114.883 299.945 116.828 299.594 119.359H313.727V118.551C313.68 116.301 313.07 114.566 311.898 113.348C310.727 112.105 309.062 111.484 306.906 111.484ZM388.293 124.949C387.895 130.457 385.855 134.793 382.176 137.957C378.52 141.121 373.691 142.703 367.691 142.703C361.129 142.703 355.961 140.5 352.188 136.094C348.438 131.664 346.562 125.594 346.562 117.883V114.754C346.562 109.832 347.43 105.496 349.164 101.746C350.898 97.9961 353.371 95.125 356.582 93.1328C359.816 91.1172 363.566 90.1094 367.832 90.1094C373.738 90.1094 378.496 91.6914 382.105 94.8555C385.715 98.0195 387.801 102.461 388.363 108.18H377.816C377.559 104.875 376.633 102.484 375.039 101.008C373.469 99.5078 371.066 98.7578 367.832 98.7578C364.316 98.7578 361.68 100.023 359.922 102.555C358.188 105.062 357.297 108.965 357.25 114.262V118.129C357.25 123.66 358.082 127.703 359.746 130.258C361.434 132.812 364.082 134.09 367.691 134.09C370.949 134.09 373.375 133.352 374.969 131.875C376.586 130.375 377.512 128.066 377.746 124.949H388.293ZM416.594 142C416.125 141.086 415.785 139.949 415.574 138.59C413.113 141.332 409.914 142.703 405.977 142.703C402.25 142.703 399.156 141.625 396.695 139.469C394.258 137.312 393.039 134.594 393.039 131.312C393.039 127.281 394.527 124.188 397.504 122.031C400.504 119.875 404.828 118.785 410.477 118.762H415.152V116.582C415.152 114.824 414.695 113.418 413.781 112.363C412.891 111.309 411.473 110.781 409.527 110.781C407.816 110.781 406.469 111.191 405.484 112.012C404.523 112.832 404.043 113.957 404.043 115.387H393.883C393.883 113.184 394.562 111.145 395.922 109.27C397.281 107.395 399.203 105.93 401.688 104.875C404.172 103.797 406.961 103.258 410.055 103.258C414.742 103.258 418.457 104.441 421.199 106.809C423.965 109.152 425.348 112.457 425.348 116.723V133.211C425.371 136.82 425.875 139.551 426.859 141.402V142H416.594ZM408.191 134.934C409.691 134.934 411.074 134.605 412.34 133.949C413.605 133.27 414.543 132.367 415.152 131.242V124.703H411.355C406.27 124.703 403.562 126.461 403.234 129.977L403.199 130.574C403.199 131.84 403.645 132.883 404.535 133.703C405.426 134.523 406.645 134.934 408.191 134.934ZM467.43 123.332C467.43 129.426 466.129 134.184 463.527 137.605C460.926 141.004 457.293 142.703 452.629 142.703C448.504 142.703 445.211 141.121 442.75 137.957L442.293 142H433.152V88H443.312V107.371C445.656 104.629 448.738 103.258 452.559 103.258C457.199 103.258 460.832 104.969 463.457 108.391C466.105 111.789 467.43 116.582 467.43 122.77V123.332ZM457.27 122.594C457.27 118.75 456.66 115.949 455.441 114.191C454.223 112.41 452.406 111.52 449.992 111.52C446.758 111.52 444.531 112.844 443.312 115.492V130.504C444.555 133.176 446.805 134.512 450.062 134.512C453.344 134.512 455.5 132.895 456.531 129.66C457.023 128.113 457.27 125.758 457.27 122.594ZM491.23 142.703C485.652 142.703 481.105 140.992 477.59 137.57C474.098 134.148 472.352 129.59 472.352 123.895V122.91C472.352 119.09 473.09 115.68 474.566 112.68C476.043 109.656 478.129 107.336 480.824 105.719C483.543 104.078 486.637 103.258 490.105 103.258C495.309 103.258 499.398 104.898 502.375 108.18C505.375 111.461 506.875 116.113 506.875 122.137V126.285H482.652C482.98 128.77 483.965 130.762 485.605 132.262C487.27 133.762 489.367 134.512 491.898 134.512C495.812 134.512 498.871 133.094 501.074 130.258L506.066 135.848C504.543 138.004 502.48 139.691 499.879 140.91C497.277 142.105 494.395 142.703 491.23 142.703ZM490.07 111.484C488.055 111.484 486.414 112.164 485.148 113.523C483.906 114.883 483.109 116.828 482.758 119.359H496.891V118.551C496.844 116.301 496.234 114.566 495.062 113.348C493.891 112.105 492.227 111.484 490.07 111.484ZM523.398 142H513.203V88H523.398V142ZM542.523 142H532.328V88H542.523V142ZM549.344 122.629C549.344 118.855 550.07 115.492 551.523 112.539C552.977 109.586 555.062 107.301 557.781 105.684C560.523 104.066 563.699 103.258 567.309 103.258C572.441 103.258 576.625 104.828 579.859 107.969C583.117 111.109 584.934 115.375 585.309 120.766L585.379 123.367C585.379 129.203 583.75 133.891 580.492 137.43C577.234 140.945 572.863 142.703 567.379 142.703C561.895 142.703 557.512 140.945 554.23 137.43C550.973 133.914 549.344 129.133 549.344 123.086V122.629ZM559.504 123.367C559.504 126.977 560.184 129.742 561.543 131.664C562.902 133.562 564.848 134.512 567.379 134.512C569.84 134.512 571.762 133.574 573.145 131.699C574.527 129.801 575.219 126.777 575.219 122.629C575.219 119.09 574.527 116.348 573.145 114.402C571.762 112.457 569.816 111.484 567.309 111.484C564.824 111.484 562.902 112.457 561.543 114.402C560.184 116.324 559.504 119.312 559.504 123.367Z" fill="#fd1f6c" />
	<path d="M162.207 90.8125H172.754V126.25C172.754 129.508 172.027 132.391 170.574 134.898C169.145 137.383 167.117 139.305 164.492 140.664C161.867 142.023 158.902 142.703 155.598 142.703C150.184 142.703 145.965 141.332 142.941 138.59C139.918 135.824 138.406 131.922 138.406 126.883H149.023C149.023 129.391 149.551 131.242 150.605 132.438C151.66 133.633 153.324 134.23 155.598 134.23C157.613 134.23 159.219 133.539 160.414 132.156C161.609 130.773 162.207 128.805 162.207 126.25V90.8125ZM179.539 122.629C179.539 118.855 180.266 115.492 181.719 112.539C183.172 109.586 185.258 107.301 187.977 105.684C190.719 104.066 193.895 103.258 197.504 103.258C202.637 103.258 206.82 104.828 210.055 107.969C213.312 111.109 215.129 115.375 215.504 120.766L215.574 123.367C215.574 129.203 213.945 133.891 210.688 137.43C207.43 140.945 203.059 142.703 197.574 142.703C192.09 142.703 187.707 140.945 184.426 137.43C181.168 133.914 179.539 129.133 179.539 123.086V122.629ZM189.699 123.367C189.699 126.977 190.379 129.742 191.738 131.664C193.098 133.562 195.043 134.512 197.574 134.512C200.035 134.512 201.957 133.574 203.34 131.699C204.723 129.801 205.414 126.777 205.414 122.629C205.414 119.09 204.723 116.348 203.34 114.402C201.957 112.457 200.012 111.484 197.504 111.484C195.02 111.484 193.098 112.457 191.738 114.402C190.379 116.324 189.699 119.312 189.699 123.367ZM243.207 113.488C241.824 113.301 240.605 113.207 239.551 113.207C235.707 113.207 233.188 114.508 231.992 117.109V142H221.832V103.961H231.43L231.711 108.496C233.75 105.004 236.574 103.258 240.184 103.258C241.309 103.258 242.363 103.41 243.348 103.715L243.207 113.488ZM245.949 122.699C245.949 116.863 247.332 112.164 250.098 108.602C252.887 105.039 256.637 103.258 261.348 103.258C265.52 103.258 268.766 104.688 271.086 107.547L271.508 103.961H280.719V140.734C280.719 144.062 279.957 146.957 278.434 149.418C276.934 151.879 274.812 153.754 272.07 155.043C269.328 156.332 266.117 156.977 262.438 156.977C259.648 156.977 256.93 156.414 254.281 155.289C251.633 154.188 249.629 152.758 248.27 151L252.77 144.812C255.301 147.648 258.371 149.066 261.98 149.066C264.676 149.066 266.773 148.34 268.273 146.887C269.773 145.457 270.523 143.418 270.523 140.77V138.73C268.18 141.379 265.098 142.703 261.277 142.703C256.707 142.703 253.004 140.922 250.168 137.359C247.355 133.773 245.949 129.027 245.949 123.121V122.699ZM256.109 123.438C256.109 126.883 256.801 129.59 258.184 131.559C259.566 133.504 261.465 134.477 263.879 134.477C266.973 134.477 269.188 133.316 270.523 130.996V115C269.164 112.68 266.973 111.52 263.949 111.52C261.512 111.52 259.59 112.516 258.184 114.508C256.801 116.5 256.109 119.477 256.109 123.438ZM306.066 142.703C300.488 142.703 295.941 140.992 292.426 137.57C288.934 134.148 287.188 129.59 287.188 123.895V122.91C287.188 119.09 287.926 115.68 289.402 112.68C290.879 109.656 292.965 107.336 295.66 105.719C298.379 104.078 301.473 103.258 304.941 103.258C310.145 103.258 314.234 104.898 317.211 108.18C320.211 111.461 321.711 116.113 321.711 122.137V126.285H297.488C297.816 128.77 298.801 130.762 300.441 132.262C302.105 133.762 304.203 134.512 306.734 134.512C310.648 134.512 313.707 133.094 315.91 130.258L320.902 135.848C319.379 138.004 317.316 139.691 314.715 140.91C312.113 142.105 309.23 142.703 306.066 142.703ZM304.906 111.484C302.891 111.484 301.25 112.164 299.984 113.523C298.742 114.883 297.945 116.828 297.594 119.359H311.727V118.551C311.68 116.301 311.07 114.566 309.898 113.348C308.727 112.105 307.062 111.484 304.906 111.484ZM386.293 124.949C385.895 130.457 383.855 134.793 380.176 137.957C376.52 141.121 371.691 142.703 365.691 142.703C359.129 142.703 353.961 140.5 350.188 136.094C346.438 131.664 344.562 125.594 344.562 117.883V114.754C344.562 109.832 345.43 105.496 347.164 101.746C348.898 97.9961 351.371 95.125 354.582 93.1328C357.816 91.1172 361.566 90.1094 365.832 90.1094C371.738 90.1094 376.496 91.6914 380.105 94.8555C383.715 98.0195 385.801 102.461 386.363 108.18H375.816C375.559 104.875 374.633 102.484 373.039 101.008C371.469 99.5078 369.066 98.7578 365.832 98.7578C362.316 98.7578 359.68 100.023 357.922 102.555C356.188 105.062 355.297 108.965 355.25 114.262V118.129C355.25 123.66 356.082 127.703 357.746 130.258C359.434 132.812 362.082 134.09 365.691 134.09C368.949 134.09 371.375 133.352 372.969 131.875C374.586 130.375 375.512 128.066 375.746 124.949H386.293ZM414.594 142C414.125 141.086 413.785 139.949 413.574 138.59C411.113 141.332 407.914 142.703 403.977 142.703C400.25 142.703 397.156 141.625 394.695 139.469C392.258 137.312 391.039 134.594 391.039 131.312C391.039 127.281 392.527 124.188 395.504 122.031C398.504 119.875 402.828 118.785 408.477 118.762H413.152V116.582C413.152 114.824 412.695 113.418 411.781 112.363C410.891 111.309 409.473 110.781 407.527 110.781C405.816 110.781 404.469 111.191 403.484 112.012C402.523 112.832 402.043 113.957 402.043 115.387H391.883C391.883 113.184 392.562 111.145 393.922 109.27C395.281 107.395 397.203 105.93 399.688 104.875C402.172 103.797 404.961 103.258 408.055 103.258C412.742 103.258 416.457 104.441 419.199 106.809C421.965 109.152 423.348 112.457 423.348 116.723V133.211C423.371 136.82 423.875 139.551 424.859 141.402V142H414.594ZM406.191 134.934C407.691 134.934 409.074 134.605 410.34 133.949C411.605 133.27 412.543 132.367 413.152 131.242V124.703H409.355C404.27 124.703 401.562 126.461 401.234 129.977L401.199 130.574C401.199 131.84 401.645 132.883 402.535 133.703C403.426 134.523 404.645 134.934 406.191 134.934ZM465.43 123.332C465.43 129.426 464.129 134.184 461.527 137.605C458.926 141.004 455.293 142.703 450.629 142.703C446.504 142.703 443.211 141.121 440.75 137.957L440.293 142H431.152V88H441.312V107.371C443.656 104.629 446.738 103.258 450.559 103.258C455.199 103.258 458.832 104.969 461.457 108.391C464.105 111.789 465.43 116.582 465.43 122.77V123.332ZM455.27 122.594C455.27 118.75 454.66 115.949 453.441 114.191C452.223 112.41 450.406 111.52 447.992 111.52C444.758 111.52 442.531 112.844 441.312 115.492V130.504C442.555 133.176 444.805 134.512 448.062 134.512C451.344 134.512 453.5 132.895 454.531 129.66C455.023 128.113 455.27 125.758 455.27 122.594ZM489.23 142.703C483.652 142.703 479.105 140.992 475.59 137.57C472.098 134.148 470.352 129.59 470.352 123.895V122.91C470.352 119.09 471.09 115.68 472.566 112.68C474.043 109.656 476.129 107.336 478.824 105.719C481.543 104.078 484.637 103.258 488.105 103.258C493.309 103.258 497.398 104.898 500.375 108.18C503.375 111.461 504.875 116.113 504.875 122.137V126.285H480.652C480.98 128.77 481.965 130.762 483.605 132.262C485.27 133.762 487.367 134.512 489.898 134.512C493.812 134.512 496.871 133.094 499.074 130.258L504.066 135.848C502.543 138.004 500.48 139.691 497.879 140.91C495.277 142.105 492.395 142.703 489.23 142.703ZM488.07 111.484C486.055 111.484 484.414 112.164 483.148 113.523C481.906 114.883 481.109 116.828 480.758 119.359H494.891V118.551C494.844 116.301 494.234 114.566 493.062 113.348C491.891 112.105 490.227 111.484 488.07 111.484ZM521.398 142H511.203V88H521.398V142ZM540.523 142H530.328V88H540.523V142ZM547.344 122.629C547.344 118.855 548.07 115.492 549.523 112.539C550.977 109.586 553.062 107.301 555.781 105.684C558.523 104.066 561.699 103.258 565.309 103.258C570.441 103.258 574.625 104.828 577.859 107.969C581.117 111.109 582.934 115.375 583.309 120.766L583.379 123.367C583.379 129.203 581.75 133.891 578.492 137.43C575.234 140.945 570.863 142.703 565.379 142.703C559.895 142.703 555.512 140.945 552.23 137.43C548.973 133.914 547.344 129.133 547.344 123.086V122.629ZM557.504 123.367C557.504 126.977 558.184 129.742 559.543 131.664C560.902 133.562 562.848 134.512 565.379 134.512C567.84 134.512 569.762 133.574 571.145 131.699C572.527 129.801 573.219 126.777 573.219 122.629C573.219 119.09 572.527 116.348 571.145 114.402C569.762 112.457 567.816 111.484 565.309 111.484C562.824 111.484 560.902 112.457 559.543 114.402C558.184 116.324 557.504 119.312 557.504 123.367Z" fill="white" />
	<path d="M150.789 183.027H144.039V190H140.523V172.938H151.633V175.785H144.039V180.191H150.789V183.027ZM160.27 180.496C159.809 180.434 159.402 180.402 159.051 180.402C157.77 180.402 156.93 180.836 156.531 181.703V190H153.145V177.32H156.344L156.438 178.832C157.117 177.668 158.059 177.086 159.262 177.086C159.637 177.086 159.988 177.137 160.316 177.238L160.27 180.496ZM160.961 183.543C160.961 182.285 161.203 181.164 161.688 180.18C162.172 179.195 162.867 178.434 163.773 177.895C164.688 177.355 165.746 177.086 166.949 177.086C168.66 177.086 170.055 177.609 171.133 178.656C172.219 179.703 172.824 181.125 172.949 182.922L172.973 183.789C172.973 185.734 172.43 187.297 171.344 188.477C170.258 189.648 168.801 190.234 166.973 190.234C165.145 190.234 163.684 189.648 162.59 188.477C161.504 187.305 160.961 185.711 160.961 183.695V183.543ZM164.348 183.789C164.348 184.992 164.574 185.914 165.027 186.555C165.48 187.188 166.129 187.504 166.973 187.504C167.793 187.504 168.434 187.191 168.895 186.566C169.355 185.934 169.586 184.926 169.586 183.543C169.586 182.363 169.355 181.449 168.895 180.801C168.434 180.152 167.785 179.828 166.949 179.828C166.121 179.828 165.48 180.152 165.027 180.801C164.574 181.441 164.348 182.438 164.348 183.789ZM178.176 177.32L178.281 178.785C179.188 177.652 180.402 177.086 181.926 177.086C183.27 177.086 184.27 177.48 184.926 178.27C185.582 179.059 185.918 180.238 185.934 181.809V190H182.547V181.891C182.547 181.172 182.391 180.652 182.078 180.332C181.766 180.004 181.246 179.84 180.52 179.84C179.566 179.84 178.852 180.246 178.375 181.059V190H174.988V177.32H178.176ZM192.566 174.203V177.32H194.734V179.805H192.566V186.133C192.566 186.602 192.656 186.938 192.836 187.141C193.016 187.344 193.359 187.445 193.867 187.445C194.242 187.445 194.574 187.418 194.863 187.363V189.93C194.199 190.133 193.516 190.234 192.812 190.234C190.438 190.234 189.227 189.035 189.18 186.637V179.805H187.328V177.32H189.18V174.203H192.566ZM203.207 184.059H196.609V181.328H203.207V184.059ZM211.762 190.234C209.902 190.234 208.387 189.664 207.215 188.523C206.051 187.383 205.469 185.863 205.469 183.965V183.637C205.469 182.363 205.715 181.227 206.207 180.227C206.699 179.219 207.395 178.445 208.293 177.906C209.199 177.359 210.23 177.086 211.387 177.086C213.121 177.086 214.484 177.633 215.477 178.727C216.477 179.82 216.977 181.371 216.977 183.379V184.762H208.902C209.012 185.59 209.34 186.254 209.887 186.754C210.441 187.254 211.141 187.504 211.984 187.504C213.289 187.504 214.309 187.031 215.043 186.086L216.707 187.949C216.199 188.668 215.512 189.23 214.645 189.637C213.777 190.035 212.816 190.234 211.762 190.234ZM211.375 179.828C210.703 179.828 210.156 180.055 209.734 180.508C209.32 180.961 209.055 181.609 208.938 182.453H213.648V182.184C213.633 181.434 213.43 180.855 213.039 180.449C212.648 180.035 212.094 179.828 211.375 179.828ZM222.027 177.32L222.133 178.785C223.039 177.652 224.254 177.086 225.777 177.086C227.121 177.086 228.121 177.48 228.777 178.27C229.434 179.059 229.77 180.238 229.785 181.809V190H226.398V181.891C226.398 181.172 226.242 180.652 225.93 180.332C225.617 180.004 225.098 179.84 224.371 179.84C223.418 179.84 222.703 180.246 222.227 181.059V190H218.84V177.32H222.027ZM231.836 183.566C231.836 181.59 232.277 180.016 233.16 178.844C234.051 177.672 235.266 177.086 236.805 177.086C238.039 177.086 239.059 177.547 239.863 178.469V172H243.262V190H240.203L240.039 188.652C239.195 189.707 238.109 190.234 236.781 190.234C235.289 190.234 234.09 189.648 233.184 188.477C232.285 187.297 231.836 185.66 231.836 183.566ZM235.223 183.812C235.223 185 235.43 185.91 235.844 186.543C236.258 187.176 236.859 187.492 237.648 187.492C238.695 187.492 239.434 187.051 239.863 186.168V181.164C239.441 180.281 238.711 179.84 237.672 179.84C236.039 179.84 235.223 181.164 235.223 183.812ZM251.336 183.566C251.336 181.59 251.777 180.016 252.66 178.844C253.551 177.672 254.766 177.086 256.305 177.086C257.539 177.086 258.559 177.547 259.363 178.469V172H262.762V190H259.703L259.539 188.652C258.695 189.707 257.609 190.234 256.281 190.234C254.789 190.234 253.59 189.648 252.684 188.477C251.785 187.297 251.336 185.66 251.336 183.566ZM254.723 183.812C254.723 185 254.93 185.91 255.344 186.543C255.758 187.176 256.359 187.492 257.148 187.492C258.195 187.492 258.934 187.051 259.363 186.168V181.164C258.941 180.281 258.211 179.84 257.172 179.84C255.539 179.84 254.723 181.164 254.723 183.812ZM271.223 190.234C269.363 190.234 267.848 189.664 266.676 188.523C265.512 187.383 264.93 185.863 264.93 183.965V183.637C264.93 182.363 265.176 181.227 265.668 180.227C266.16 179.219 266.855 178.445 267.754 177.906C268.66 177.359 269.691 177.086 270.848 177.086C272.582 177.086 273.945 177.633 274.938 178.727C275.938 179.82 276.438 181.371 276.438 183.379V184.762H268.363C268.473 185.59 268.801 186.254 269.348 186.754C269.902 187.254 270.602 187.504 271.445 187.504C272.75 187.504 273.77 187.031 274.504 186.086L276.168 187.949C275.66 188.668 274.973 189.23 274.105 189.637C273.238 190.035 272.277 190.234 271.223 190.234ZM270.836 179.828C270.164 179.828 269.617 180.055 269.195 180.508C268.781 180.961 268.516 181.609 268.398 182.453H273.109V182.184C273.094 181.434 272.891 180.855 272.5 180.449C272.109 180.035 271.555 179.828 270.836 179.828ZM282.953 185.863L285.309 177.32H288.848L284.57 190H281.336L277.059 177.32H280.598L282.953 185.863ZM289.258 194.277L287.488 193.352L287.91 192.59C288.434 191.637 288.703 190.688 288.719 189.742V187.117H291.578L291.566 189.461C291.559 190.328 291.34 191.203 290.91 192.086C290.48 192.969 289.93 193.699 289.258 194.277ZM305.488 187.504C306.113 187.504 306.621 187.332 307.012 186.988C307.402 186.645 307.605 186.188 307.621 185.617H310.797C310.789 186.477 310.555 187.266 310.094 187.984C309.633 188.695 309 189.25 308.195 189.648C307.398 190.039 306.516 190.234 305.547 190.234C303.734 190.234 302.305 189.66 301.258 188.512C300.211 187.355 299.688 185.762 299.688 183.73V183.508C299.688 181.555 300.207 179.996 301.246 178.832C302.285 177.668 303.711 177.086 305.523 177.086C307.109 177.086 308.379 177.539 309.332 178.445C310.293 179.344 310.781 180.543 310.797 182.043H307.621C307.605 181.387 307.402 180.855 307.012 180.449C306.621 180.035 306.105 179.828 305.465 179.828C304.676 179.828 304.078 180.117 303.672 180.695C303.273 181.266 303.074 182.195 303.074 183.484V183.836C303.074 185.141 303.273 186.078 303.672 186.648C304.07 187.219 304.676 187.504 305.488 187.504ZM320.324 188.711C319.488 189.727 318.332 190.234 316.855 190.234C315.496 190.234 314.457 189.844 313.738 189.062C313.027 188.281 312.664 187.137 312.648 185.629V177.32H316.035V185.512C316.035 186.832 316.637 187.492 317.84 187.492C318.988 187.492 319.777 187.094 320.207 186.297V177.32H323.605V190H320.418L320.324 188.711ZM333.285 180.496C332.824 180.434 332.418 180.402 332.066 180.402C330.785 180.402 329.945 180.836 329.547 181.703V190H326.16V177.32H329.359L329.453 178.832C330.133 177.668 331.074 177.086 332.277 177.086C332.652 177.086 333.004 177.137 333.332 177.238L333.285 180.496ZM342.051 180.496C341.59 180.434 341.184 180.402 340.832 180.402C339.551 180.402 338.711 180.836 338.312 181.703V190H334.926V177.32H338.125L338.219 178.832C338.898 177.668 339.84 177.086 341.043 177.086C341.418 177.086 341.77 177.137 342.098 177.238L342.051 180.496ZM349.293 190.234C347.434 190.234 345.918 189.664 344.746 188.523C343.582 187.383 343 185.863 343 183.965V183.637C343 182.363 343.246 181.227 343.738 180.227C344.23 179.219 344.926 178.445 345.824 177.906C346.73 177.359 347.762 177.086 348.918 177.086C350.652 177.086 352.016 177.633 353.008 178.727C354.008 179.82 354.508 181.371 354.508 183.379V184.762H346.434C346.543 185.59 346.871 186.254 347.418 186.754C347.973 187.254 348.672 187.504 349.516 187.504C350.82 187.504 351.84 187.031 352.574 186.086L354.238 187.949C353.73 188.668 353.043 189.23 352.176 189.637C351.309 190.035 350.348 190.234 349.293 190.234ZM348.906 179.828C348.234 179.828 347.688 180.055 347.266 180.508C346.852 180.961 346.586 181.609 346.469 182.453H351.18V182.184C351.164 181.434 350.961 180.855 350.57 180.449C350.18 180.035 349.625 179.828 348.906 179.828ZM359.559 177.32L359.664 178.785C360.57 177.652 361.785 177.086 363.309 177.086C364.652 177.086 365.652 177.48 366.309 178.27C366.965 179.059 367.301 180.238 367.316 181.809V190H363.93V181.891C363.93 181.172 363.773 180.652 363.461 180.332C363.148 180.004 362.629 179.84 361.902 179.84C360.949 179.84 360.234 180.246 359.758 181.059V190H356.371V177.32H359.559ZM373.949 174.203V177.32H376.117V179.805H373.949V186.133C373.949 186.602 374.039 186.938 374.219 187.141C374.398 187.344 374.742 187.445 375.25 187.445C375.625 187.445 375.957 187.418 376.246 187.363V189.93C375.582 190.133 374.898 190.234 374.195 190.234C371.82 190.234 370.609 189.035 370.562 186.637V179.805H368.711V177.32H370.562V174.203H373.949ZM381.578 190H378.18V172H381.578V190ZM389.113 185.207L391.457 177.32H395.09L389.992 191.969L389.711 192.637C388.953 194.293 387.703 195.121 385.961 195.121C385.469 195.121 384.969 195.047 384.461 194.898V192.332L384.977 192.344C385.617 192.344 386.094 192.246 386.406 192.051C386.727 191.855 386.977 191.531 387.156 191.078L387.555 190.035L383.113 177.32H386.758L389.113 185.207ZM413.43 185.395L415.094 177.32H418.363L415.129 190H412.293L409.891 182.02L407.488 190H404.664L401.43 177.32H404.699L406.352 185.383L408.672 177.32H411.121L413.43 185.395ZM419.523 183.543C419.523 182.285 419.766 181.164 420.25 180.18C420.734 179.195 421.43 178.434 422.336 177.895C423.25 177.355 424.309 177.086 425.512 177.086C427.223 177.086 428.617 177.609 429.695 178.656C430.781 179.703 431.387 181.125 431.512 182.922L431.535 183.789C431.535 185.734 430.992 187.297 429.906 188.477C428.82 189.648 427.363 190.234 425.535 190.234C423.707 190.234 422.246 189.648 421.152 188.477C420.066 187.305 419.523 185.711 419.523 183.695V183.543ZM422.91 183.789C422.91 184.992 423.137 185.914 423.59 186.555C424.043 187.188 424.691 187.504 425.535 187.504C426.355 187.504 426.996 187.191 427.457 186.566C427.918 185.934 428.148 184.926 428.148 183.543C428.148 182.363 427.918 181.449 427.457 180.801C426.996 180.152 426.348 179.828 425.512 179.828C424.684 179.828 424.043 180.152 423.59 180.801C423.137 181.441 422.91 182.438 422.91 183.789ZM440.746 180.496C440.285 180.434 439.879 180.402 439.527 180.402C438.246 180.402 437.406 180.836 437.008 181.703V190H433.621V177.32H436.82L436.914 178.832C437.594 177.668 438.535 177.086 439.738 177.086C440.113 177.086 440.465 177.137 440.793 177.238L440.746 180.496ZM446.992 184.914L445.773 186.133V190H442.387V172H445.773V181.973L446.43 181.129L449.676 177.32H453.742L449.16 182.605L454.141 190H450.25L446.992 184.914ZM458.781 190H455.383V177.32H458.781V190ZM455.184 174.039C455.184 173.531 455.352 173.113 455.688 172.785C456.031 172.457 456.496 172.293 457.082 172.293C457.66 172.293 458.121 172.457 458.465 172.785C458.809 173.113 458.98 173.531 458.98 174.039C458.98 174.555 458.805 174.977 458.453 175.305C458.109 175.633 457.652 175.797 457.082 175.797C456.512 175.797 456.051 175.633 455.699 175.305C455.355 174.977 455.184 174.555 455.184 174.039ZM464.699 177.32L464.805 178.785C465.711 177.652 466.926 177.086 468.449 177.086C469.793 177.086 470.793 177.48 471.449 178.27C472.105 179.059 472.441 180.238 472.457 181.809V190H469.07V181.891C469.07 181.172 468.914 180.652 468.602 180.332C468.289 180.004 467.77 179.84 467.043 179.84C466.09 179.84 465.375 180.246 464.898 181.059V190H461.512V177.32H464.699ZM474.543 183.566C474.543 181.621 475.004 180.055 475.926 178.867C476.855 177.68 478.105 177.086 479.676 177.086C481.066 177.086 482.148 177.562 482.922 178.516L483.062 177.32H486.133V189.578C486.133 190.688 485.879 191.652 485.371 192.473C484.871 193.293 484.164 193.918 483.25 194.348C482.336 194.777 481.266 194.992 480.039 194.992C479.109 194.992 478.203 194.805 477.32 194.43C476.438 194.062 475.77 193.586 475.316 193L476.816 190.938C477.66 191.883 478.684 192.355 479.887 192.355C480.785 192.355 481.484 192.113 481.984 191.629C482.484 191.152 482.734 190.473 482.734 189.59V188.91C481.953 189.793 480.926 190.234 479.652 190.234C478.129 190.234 476.895 189.641 475.949 188.453C475.012 187.258 474.543 185.676 474.543 183.707V183.566ZM477.93 183.812C477.93 184.961 478.16 185.863 478.621 186.52C479.082 187.168 479.715 187.492 480.52 187.492C481.551 187.492 482.289 187.105 482.734 186.332V181C482.281 180.227 481.551 179.84 480.543 179.84C479.73 179.84 479.09 180.172 478.621 180.836C478.16 181.5 477.93 182.492 477.93 183.812ZM505.75 185.395L507.414 177.32H510.684L507.449 190H504.613L502.211 182.02L499.809 190H496.984L493.75 177.32H497.02L498.672 185.383L500.992 177.32H503.441L505.75 185.395ZM515.945 190H512.547V177.32H515.945V190ZM512.348 174.039C512.348 173.531 512.516 173.113 512.852 172.785C513.195 172.457 513.66 172.293 514.246 172.293C514.824 172.293 515.285 172.457 515.629 172.785C515.973 173.113 516.145 173.531 516.145 174.039C516.145 174.555 515.969 174.977 515.617 175.305C515.273 175.633 514.816 175.797 514.246 175.797C513.676 175.797 513.215 175.633 512.863 175.305C512.52 174.977 512.348 174.555 512.348 174.039ZM522.801 174.203V177.32H524.969V179.805H522.801V186.133C522.801 186.602 522.891 186.938 523.07 187.141C523.25 187.344 523.594 187.445 524.102 187.445C524.477 187.445 524.809 187.418 525.098 187.363V189.93C524.434 190.133 523.75 190.234 523.047 190.234C520.672 190.234 519.461 189.035 519.414 186.637V179.805H517.562V177.32H519.414V174.203H522.801ZM530.16 178.703C531.059 177.625 532.188 177.086 533.547 177.086C536.297 177.086 537.691 178.684 537.73 181.879V190H534.344V181.973C534.344 181.246 534.188 180.711 533.875 180.367C533.562 180.016 533.043 179.84 532.316 179.84C531.324 179.84 530.605 180.223 530.16 180.988V190H526.773V172H530.16V178.703ZM146.84 211.754H144.039V218H140.523V200.938H146.863C148.879 200.938 150.434 201.387 151.527 202.285C152.621 203.184 153.168 204.453 153.168 206.094C153.168 207.258 152.914 208.23 152.406 209.012C151.906 209.785 151.145 210.402 150.121 210.863L153.812 217.836V218H150.039L146.84 211.754ZM144.039 208.906H146.875C147.758 208.906 148.441 208.684 148.926 208.238C149.41 207.785 149.652 207.164 149.652 206.375C149.652 205.57 149.422 204.938 148.961 204.477C148.508 204.016 147.809 203.785 146.863 203.785H144.039V208.906ZM161.465 218.234C159.605 218.234 158.09 217.664 156.918 216.523C155.754 215.383 155.172 213.863 155.172 211.965V211.637C155.172 210.363 155.418 209.227 155.91 208.227C156.402 207.219 157.098 206.445 157.996 205.906C158.902 205.359 159.934 205.086 161.09 205.086C162.824 205.086 164.188 205.633 165.18 206.727C166.18 207.82 166.68 209.371 166.68 211.379V212.762H158.605C158.715 213.59 159.043 214.254 159.59 214.754C160.145 215.254 160.844 215.504 161.688 215.504C162.992 215.504 164.012 215.031 164.746 214.086L166.41 215.949C165.902 216.668 165.215 217.23 164.348 217.637C163.48 218.035 162.52 218.234 161.465 218.234ZM161.078 207.828C160.406 207.828 159.859 208.055 159.438 208.508C159.023 208.961 158.758 209.609 158.641 210.453H163.352V210.184C163.336 209.434 163.133 208.855 162.742 208.449C162.352 208.035 161.797 207.828 161.078 207.828ZM175.961 218C175.805 217.695 175.691 217.316 175.621 216.863C174.801 217.777 173.734 218.234 172.422 218.234C171.18 218.234 170.148 217.875 169.328 217.156C168.516 216.438 168.109 215.531 168.109 214.438C168.109 213.094 168.605 212.062 169.598 211.344C170.598 210.625 172.039 210.262 173.922 210.254H175.48V209.527C175.48 208.941 175.328 208.473 175.023 208.121C174.727 207.77 174.254 207.594 173.605 207.594C173.035 207.594 172.586 207.73 172.258 208.004C171.938 208.277 171.777 208.652 171.777 209.129H168.391C168.391 208.395 168.617 207.715 169.07 207.09C169.523 206.465 170.164 205.977 170.992 205.625C171.82 205.266 172.75 205.086 173.781 205.086C175.344 205.086 176.582 205.48 177.496 206.27C178.418 207.051 178.879 208.152 178.879 209.574V215.07C178.887 216.273 179.055 217.184 179.383 217.801V218H175.961ZM173.16 215.645C173.66 215.645 174.121 215.535 174.543 215.316C174.965 215.09 175.277 214.789 175.48 214.414V212.234H174.215C172.52 212.234 171.617 212.82 171.508 213.992L171.496 214.191C171.496 214.613 171.645 214.961 171.941 215.234C172.238 215.508 172.645 215.645 173.16 215.645ZM186.754 215.504C187.379 215.504 187.887 215.332 188.277 214.988C188.668 214.645 188.871 214.188 188.887 213.617H192.062C192.055 214.477 191.82 215.266 191.359 215.984C190.898 216.695 190.266 217.25 189.461 217.648C188.664 218.039 187.781 218.234 186.812 218.234C185 218.234 183.57 217.66 182.523 216.512C181.477 215.355 180.953 213.762 180.953 211.73V211.508C180.953 209.555 181.473 207.996 182.512 206.832C183.551 205.668 184.977 205.086 186.789 205.086C188.375 205.086 189.645 205.539 190.598 206.445C191.559 207.344 192.047 208.543 192.062 210.043H188.887C188.871 209.387 188.668 208.855 188.277 208.449C187.887 208.035 187.371 207.828 186.73 207.828C185.941 207.828 185.344 208.117 184.938 208.695C184.539 209.266 184.34 210.195 184.34 211.484V211.836C184.34 213.141 184.539 214.078 184.938 214.648C185.336 215.219 185.941 215.504 186.754 215.504ZM198.051 202.203V205.32H200.219V207.805H198.051V214.133C198.051 214.602 198.141 214.938 198.32 215.141C198.5 215.344 198.844 215.445 199.352 215.445C199.727 215.445 200.059 215.418 200.348 215.363V217.93C199.684 218.133 199 218.234 198.297 218.234C195.922 218.234 194.711 217.035 194.664 214.637V207.805H192.812V205.32H194.664V202.203H198.051ZM202.984 222.277L201.215 221.352L201.637 220.59C202.16 219.637 202.43 218.688 202.445 217.742V215.117H205.305L205.293 217.461C205.285 218.328 205.066 219.203 204.637 220.086C204.207 220.969 203.656 221.699 202.984 222.277ZM226.305 203.785H221.078V218H217.562V203.785H212.406V200.938H226.305V203.785ZM231.871 213.207L234.215 205.32H237.848L232.75 219.969L232.469 220.637C231.711 222.293 230.461 223.121 228.719 223.121C228.227 223.121 227.727 223.047 227.219 222.898V220.332L227.734 220.344C228.375 220.344 228.852 220.246 229.164 220.051C229.484 219.855 229.734 219.531 229.914 219.078L230.312 218.035L225.871 205.32H229.516L231.871 213.207ZM250.598 211.777C250.598 213.73 250.152 215.297 249.262 216.477C248.379 217.648 247.184 218.234 245.676 218.234C244.395 218.234 243.359 217.789 242.57 216.898V222.875H239.184V205.32H242.324L242.441 206.562C243.262 205.578 244.332 205.086 245.652 205.086C247.215 205.086 248.43 205.664 249.297 206.82C250.164 207.977 250.598 209.57 250.598 211.602V211.777ZM247.211 211.531C247.211 210.352 247 209.441 246.578 208.801C246.164 208.16 245.559 207.84 244.762 207.84C243.699 207.84 242.969 208.246 242.57 209.059V214.25C242.984 215.086 243.723 215.504 244.785 215.504C246.402 215.504 247.211 214.18 247.211 211.531ZM258.543 218.234C256.684 218.234 255.168 217.664 253.996 216.523C252.832 215.383 252.25 213.863 252.25 211.965V211.637C252.25 210.363 252.496 209.227 252.988 208.227C253.48 207.219 254.176 206.445 255.074 205.906C255.98 205.359 257.012 205.086 258.168 205.086C259.902 205.086 261.266 205.633 262.258 206.727C263.258 207.82 263.758 209.371 263.758 211.379V212.762H255.684C255.793 213.59 256.121 214.254 256.668 214.754C257.223 215.254 257.922 215.504 258.766 215.504C260.07 215.504 261.09 215.031 261.824 214.086L263.488 215.949C262.98 216.668 262.293 217.23 261.426 217.637C260.559 218.035 259.598 218.234 258.543 218.234ZM258.156 207.828C257.484 207.828 256.938 208.055 256.516 208.508C256.102 208.961 255.836 209.609 255.719 210.453H260.43V210.184C260.414 209.434 260.211 208.855 259.82 208.449C259.43 208.035 258.875 207.828 258.156 207.828ZM274.762 213.523C274.762 212.859 274.527 212.352 274.059 212C273.59 211.641 272.746 211.266 271.527 210.875C270.309 210.477 269.344 210.086 268.633 209.703C266.695 208.656 265.727 207.246 265.727 205.473C265.727 204.551 265.984 203.73 266.5 203.012C267.023 202.285 267.77 201.719 268.738 201.312C269.715 200.906 270.809 200.703 272.02 200.703C273.238 200.703 274.324 200.926 275.277 201.371C276.23 201.809 276.969 202.43 277.492 203.234C278.023 204.039 278.289 204.953 278.289 205.977H274.773C274.773 205.195 274.527 204.59 274.035 204.16C273.543 203.723 272.852 203.504 271.961 203.504C271.102 203.504 270.434 203.688 269.957 204.055C269.48 204.414 269.242 204.891 269.242 205.484C269.242 206.039 269.52 206.504 270.074 206.879C270.637 207.254 271.461 207.605 272.547 207.934C274.547 208.535 276.004 209.281 276.918 210.172C277.832 211.062 278.289 212.172 278.289 213.5C278.289 214.977 277.73 216.137 276.613 216.98C275.496 217.816 273.992 218.234 272.102 218.234C270.789 218.234 269.594 217.996 268.516 217.52C267.438 217.035 266.613 216.375 266.043 215.539C265.48 214.703 265.199 213.734 265.199 212.633H268.727C268.727 214.516 269.852 215.457 272.102 215.457C272.938 215.457 273.59 215.289 274.059 214.953C274.527 214.609 274.762 214.133 274.762 213.523ZM285.73 215.504C286.355 215.504 286.863 215.332 287.254 214.988C287.645 214.645 287.848 214.188 287.863 213.617H291.039C291.031 214.477 290.797 215.266 290.336 215.984C289.875 216.695 289.242 217.25 288.438 217.648C287.641 218.039 286.758 218.234 285.789 218.234C283.977 218.234 282.547 217.66 281.5 216.512C280.453 215.355 279.93 213.762 279.93 211.73V211.508C279.93 209.555 280.449 207.996 281.488 206.832C282.527 205.668 283.953 205.086 285.766 205.086C287.352 205.086 288.621 205.539 289.574 206.445C290.535 207.344 291.023 208.543 291.039 210.043H287.863C287.848 209.387 287.645 208.855 287.254 208.449C286.863 208.035 286.348 207.828 285.707 207.828C284.918 207.828 284.32 208.117 283.914 208.695C283.516 209.266 283.316 210.195 283.316 211.484V211.836C283.316 213.141 283.516 214.078 283.914 214.648C284.312 215.219 284.918 215.504 285.73 215.504ZM300.098 208.496C299.637 208.434 299.23 208.402 298.879 208.402C297.598 208.402 296.758 208.836 296.359 209.703V218H292.973V205.32H296.172L296.266 206.832C296.945 205.668 297.887 205.086 299.09 205.086C299.465 205.086 299.816 205.137 300.145 205.238L300.098 208.496ZM305.312 218H301.914V205.32H305.312V218ZM301.715 202.039C301.715 201.531 301.883 201.113 302.219 200.785C302.562 200.457 303.027 200.293 303.613 200.293C304.191 200.293 304.652 200.457 304.996 200.785C305.34 201.113 305.512 201.531 305.512 202.039C305.512 202.555 305.336 202.977 304.984 203.305C304.641 203.633 304.184 203.797 303.613 203.797C303.043 203.797 302.582 203.633 302.23 203.305C301.887 202.977 301.715 202.555 301.715 202.039ZM319.527 211.777C319.527 213.73 319.082 215.297 318.191 216.477C317.309 217.648 316.113 218.234 314.605 218.234C313.324 218.234 312.289 217.789 311.5 216.898V222.875H308.113V205.32H311.254L311.371 206.562C312.191 205.578 313.262 205.086 314.582 205.086C316.145 205.086 317.359 205.664 318.227 206.82C319.094 207.977 319.527 209.57 319.527 211.602V211.777ZM316.141 211.531C316.141 210.352 315.93 209.441 315.508 208.801C315.094 208.16 314.488 207.84 313.691 207.84C312.629 207.84 311.898 208.246 311.5 209.059V214.25C311.914 215.086 312.652 215.504 313.715 215.504C315.332 215.504 316.141 214.18 316.141 211.531ZM325.691 202.203V205.32H327.859V207.805H325.691V214.133C325.691 214.602 325.781 214.938 325.961 215.141C326.141 215.344 326.484 215.445 326.992 215.445C327.367 215.445 327.699 215.418 327.988 215.363V217.93C327.324 218.133 326.641 218.234 325.938 218.234C323.562 218.234 322.352 217.035 322.305 214.637V207.805H320.453V205.32H322.305V202.203H325.691ZM343.07 218C342.914 217.695 342.801 217.316 342.73 216.863C341.91 217.777 340.844 218.234 339.531 218.234C338.289 218.234 337.258 217.875 336.438 217.156C335.625 216.438 335.219 215.531 335.219 214.438C335.219 213.094 335.715 212.062 336.707 211.344C337.707 210.625 339.148 210.262 341.031 210.254H342.59V209.527C342.59 208.941 342.438 208.473 342.133 208.121C341.836 207.77 341.363 207.594 340.715 207.594C340.145 207.594 339.695 207.73 339.367 208.004C339.047 208.277 338.887 208.652 338.887 209.129H335.5C335.5 208.395 335.727 207.715 336.18 207.09C336.633 206.465 337.273 205.977 338.102 205.625C338.93 205.266 339.859 205.086 340.891 205.086C342.453 205.086 343.691 205.48 344.605 206.27C345.527 207.051 345.988 208.152 345.988 209.574V215.07C345.996 216.273 346.164 217.184 346.492 217.801V218H343.07ZM340.27 215.645C340.77 215.645 341.23 215.535 341.652 215.316C342.074 215.09 342.387 214.789 342.59 214.414V212.234H341.324C339.629 212.234 338.727 212.82 338.617 213.992L338.605 214.191C338.605 214.613 338.754 214.961 339.051 215.234C339.348 215.508 339.754 215.645 340.27 215.645ZM351.707 205.32L351.812 206.785C352.719 205.652 353.934 205.086 355.457 205.086C356.801 205.086 357.801 205.48 358.457 206.27C359.113 207.059 359.449 208.238 359.465 209.809V218H356.078V209.891C356.078 209.172 355.922 208.652 355.609 208.332C355.297 208.004 354.777 207.84 354.051 207.84C353.098 207.84 352.383 208.246 351.906 209.059V218H348.52V205.32H351.707ZM361.516 211.566C361.516 209.59 361.957 208.016 362.84 206.844C363.73 205.672 364.945 205.086 366.484 205.086C367.719 205.086 368.738 205.547 369.543 206.469V200H372.941V218H369.883L369.719 216.652C368.875 217.707 367.789 218.234 366.461 218.234C364.969 218.234 363.77 217.648 362.863 216.477C361.965 215.297 361.516 213.66 361.516 211.566ZM364.902 211.812C364.902 213 365.109 213.91 365.523 214.543C365.938 215.176 366.539 215.492 367.328 215.492C368.375 215.492 369.113 215.051 369.543 214.168V209.164C369.121 208.281 368.391 207.84 367.352 207.84C365.719 207.84 364.902 209.164 364.902 211.812ZM395.641 218H392.125L385.281 206.773V218H381.766V200.938H385.281L392.137 212.188V200.938H395.641V218ZM404.324 218.234C402.465 218.234 400.949 217.664 399.777 216.523C398.613 215.383 398.031 213.863 398.031 211.965V211.637C398.031 210.363 398.277 209.227 398.77 208.227C399.262 207.219 399.957 206.445 400.855 205.906C401.762 205.359 402.793 205.086 403.949 205.086C405.684 205.086 407.047 205.633 408.039 206.727C409.039 207.82 409.539 209.371 409.539 211.379V212.762H401.465C401.574 213.59 401.902 214.254 402.449 214.754C403.004 215.254 403.703 215.504 404.547 215.504C405.852 215.504 406.871 215.031 407.605 214.086L409.27 215.949C408.762 216.668 408.074 217.23 407.207 217.637C406.34 218.035 405.379 218.234 404.324 218.234ZM403.938 207.828C403.266 207.828 402.719 208.055 402.297 208.508C401.883 208.961 401.617 209.609 401.5 210.453H406.211V210.184C406.195 209.434 405.992 208.855 405.602 208.449C405.211 208.035 404.656 207.828 403.938 207.828ZM416.301 209.105L418.434 205.32H422.055L418.445 211.531L422.207 218H418.574L416.312 214.016L414.062 218H410.418L414.18 211.531L410.582 205.32H414.215L416.301 209.105ZM427.738 202.203V205.32H429.906V207.805H427.738V214.133C427.738 214.602 427.828 214.938 428.008 215.141C428.188 215.344 428.531 215.445 429.039 215.445C429.414 215.445 429.746 215.418 430.035 215.363V217.93C429.371 218.133 428.688 218.234 427.984 218.234C425.609 218.234 424.398 217.035 424.352 214.637V207.805H422.5V205.32H424.352V202.203H427.738ZM435.379 205.32V218.691C435.379 220.09 435.008 221.176 434.266 221.949C433.523 222.73 432.453 223.121 431.055 223.121C430.469 223.121 429.91 223.055 429.379 222.922V220.238C429.785 220.309 430.141 220.344 430.445 220.344C431.469 220.344 431.98 219.801 431.98 218.715V205.32H435.379ZM431.711 202.039C431.711 201.531 431.879 201.113 432.215 200.785C432.559 200.457 433.023 200.293 433.609 200.293C434.195 200.293 434.656 200.457 434.992 200.785C435.336 201.113 435.508 201.531 435.508 202.039C435.508 202.555 435.332 202.977 434.98 203.305C434.637 203.633 434.18 203.797 433.609 203.797C433.039 203.797 432.578 203.633 432.227 203.305C431.883 202.977 431.711 202.555 431.711 202.039ZM444.895 214.496C444.895 214.082 444.688 213.758 444.273 213.523C443.867 213.281 443.211 213.066 442.305 212.879C439.289 212.246 437.781 210.965 437.781 209.035C437.781 207.91 438.246 206.973 439.176 206.223C440.113 205.465 441.336 205.086 442.844 205.086C444.453 205.086 445.738 205.465 446.699 206.223C447.668 206.98 448.152 207.965 448.152 209.176H444.766C444.766 208.691 444.609 208.293 444.297 207.98C443.984 207.66 443.496 207.5 442.832 207.5C442.262 207.5 441.82 207.629 441.508 207.887C441.195 208.145 441.039 208.473 441.039 208.871C441.039 209.246 441.215 209.551 441.566 209.785C441.926 210.012 442.527 210.211 443.371 210.383C444.215 210.547 444.926 210.734 445.504 210.945C447.293 211.602 448.188 212.738 448.188 214.355C448.188 215.512 447.691 216.449 446.699 217.168C445.707 217.879 444.426 218.234 442.855 218.234C441.793 218.234 440.848 218.047 440.02 217.672C439.199 217.289 438.555 216.77 438.086 216.113C437.617 215.449 437.383 214.734 437.383 213.969H440.594C440.625 214.57 440.848 215.031 441.262 215.352C441.676 215.672 442.23 215.832 442.926 215.832C443.574 215.832 444.062 215.711 444.391 215.469C444.727 215.219 444.895 214.895 444.895 214.496Z" fill="white" />
	<defs>
		<filter id="filter0_d" x="0" y="0" width="716" height="309" filterUnits="userSpaceOnUse" color-interpolation-filters="sRGB">
			<feFlood flood-opacity="0" result="BackgroundImageFix" />
			<feColorMatrix in="SourceAlpha" type="matrix" values="0 0 0 0 0 0 0 0 0 0 0 0 0 0 0 0 0 0 127 0" />
			<feOffset dy="4" />
			<feGaussianBlur stdDeviation="2" />
			<feColorMatrix type="matrix" values="0 0 0 0 0 0 0 0 0 0 0 0 0 0 0 0 0 0 0.25 0" />
			<feBlend mode="normal" in2="BackgroundImageFix" result="effect1_dropShadow" />
			<feBlend mode="normal" in="SourceGraphic" in2="effect1_dropShadow" result="shape" />
		</filter>
		<linearGradient id="paint0_linear" x1="358" y1="0" x2="358" y2="301" gradientUnits="userSpaceOnUse">
			<stop stop-color="#81C2FF" />
			<stop offset="0.5" stop-color="#E2138F" stop-opacity="0.69" />
			<stop offset="0.994792" stop-color="#24F2FF" />
		</linearGradient>
	</defs>
</svg>
